<?xml version="1.0" standalone="no"?>
<!DOCTYPE svg PUBLIC "-//W3C//DTD SVG 20010904//EN"
 "http://www.w3.org/TR/2001/REC-SVG-20010904/DTD/svg10.dtd">
<svg version="1.0" xmlns="http://www.w3.org/2000/svg"
 width="778.000000pt" height="724.000000pt" viewBox="0 0 778.000000 724.000000"
 preserveAspectRatio="xMidYMid meet">

<g transform="translate(0.000000,724.000000) scale(0.100000,-0.100000)"
fill="#000000" stroke="none">
<path d="M3660 6959 c-1085 -82 -2074 -688 -2635 -1614 -93 -154 -235 -446
-288 -595 -215 -598 -260 -1214 -136 -1835 54 -274 143 -533 269 -790 174
-354 353 -612 605 -874 529 -548 1195 -889 1960 -1006 533 -80 1166 -10 1675
187 144 56 422 192 555 273 711 431 1252 1134 1484 1927 160 547 181 1091 65
1656 -184 897 -758 1708 -1549 2187 -133 81 -411 217 -555 273 -440 170 -972
247 -1450 211z m648 -163 c595 -77 1165 -319 1625 -689 133 -108 397 -371 493
-492 325 -411 553 -900 653 -1400 43 -214 55 -349 55 -625 0 -276 -12 -411
-55 -625 -100 -500 -328 -989 -653 -1400 -96 -121 -360 -384 -493 -492 -405
-325 -926 -565 -1428 -657 -227 -42 -336 -51 -605 -50 -339 1 -536 26 -844
110 -403 109 -827 325 -1171 598 -126 100 -385 359 -490 491 -383 478 -622
1051 -696 1670 -18 142 -18 567 -1 705 77 632 310 1192 697 1675 105 132 364
391 490 491 176 139 397 279 589 374 403 197 745 291 1216 334 97 9 501 -3
618 -18z"/>
<path d="M3690 6479 c-479 -35 -953 -197 -1365 -466 -294 -193 -564 -451 -770
-738 l-57 -80 39 -8 c42 -9 562 7 773 24 74 6 150 8 169 5 112 -18 130 -186
25 -228 -22 -9 -108 -21 -199 -28 -88 -7 -161 -14 -163 -15 -1 -1 231 -699
516 -1551 286 -852 521 -1556 524 -1564 3 -8 147 412 321 933 l316 949 -224
616 -223 617 -149 13 c-228 19 -270 43 -261 148 5 63 34 100 83 110 18 3 149
-2 291 -11 143 -10 376 -17 519 -17 143 0 376 7 519 17 142 9 274 14 292 10
78 -14 112 -130 59 -194 -35 -40 -65 -48 -245 -62 -85 -6 -157 -13 -159 -15
-2 -2 230 -699 515 -1549 346 -1030 521 -1539 526 -1527 5 9 80 258 169 552
89 294 179 594 201 665 57 186 104 377 119 474 17 119 6 382 -20 486 -43 175
-134 377 -264 587 -79 127 -161 286 -188 366 -55 158 -47 324 22 461 82 164
236 266 412 273 l48 2 -38 33 c-71 62 -268 210 -338 255 -544 347 -1157 503
-1795 457z"/>
<path d="M6468 4910 c14 -107 6 -429 -12 -555 -27 -179 -88 -413 -157 -602
-119 -328 -919 -2646 -915 -2651 3 -2 57 30 121 72 612 405 1051 1028 1221
1736 86 361 103 742 49 1115 -39 263 -139 586 -255 820 l-59 120 7 -55z"/>
<path d="M1207 4632 c-134 -349 -191 -666 -191 -1047 2 -769 283 -1459 819
-2014 207 -214 443 -393 712 -539 l89 -48 -383 1051 c-211 577 -519 1425 -685
1882 -167 458 -306 833 -309 833 -3 0 -27 -53 -52 -118z"/>
<path d="M3950 3298 c0 -2 -43 -130 -96 -284 -53 -153 -100 -290 -104 -304 -4
-14 -49 -144 -100 -290 -50 -146 -102 -296 -115 -335 -13 -38 -60 -176 -105
-305 -45 -129 -92 -266 -105 -305 -28 -84 -174 -505 -204 -590 -11 -32 -21
-63 -21 -67 0 -14 47 -27 199 -57 281 -56 341 -62 606 -63 252 -1 362 8 564
48 149 30 391 99 391 112 0 3 -15 47 -34 97 -19 49 -53 141 -75 203 -58 159
-108 297 -196 537 -128 352 -155 426 -195 535 -41 114 -155 426 -243 665 -30
83 -75 206 -100 275 -25 68 -50 126 -56 128 -6 2 -11 2 -11 0z"/>
</g>
</svg>
